<svg xmlns="http://www.w3.org/2000/svg" viewBox="0 0 230.78 261.5">
    <title>DesktopCanary</title>
    <path d="M219.69,118.68A109.85,109.85,0,1,1,109.84,8.83,109.85,109.85,0,0,1,219.69,118.68" style="fill:#f7cd50"/>
    <path d="M48.75,82.68A8.79,8.79,0,1,1,40,73.89a8.8,8.8,0,0,1,8.79,8.79" style="fill:#fff"/>
    <path d="M50.2,106.76A8.79,8.79,0,1,1,41.41,98a8.8,8.8,0,0,1,8.79,8.79" style="fill:#fff"/>
    <path d="M55.58,132.29a8.79,8.79,0,1,1-8.79-8.78,8.8,8.8,0,0,1,8.79,8.78" style="fill:#fff"/>
    <path d="M67.63,155.18a8.79,8.79,0,1,1-8.78-8.79,8.78,8.78,0,0,1,8.78,8.79" style="fill:#fff"/>
    <path d="M161.64,187.17a8.79,8.79,0,1,1-8.79-8.79,8.8,8.8,0,0,1,8.79,8.79" style="fill:#fff"/>
    <path d="M177.59,168.29a8.79,8.79,0,1,1-8.79-8.79,8.78,8.78,0,0,1,8.79,8.79" style="fill:#fff"/>
    <path d="M131.29,34.74A8.79,8.79,0,1,1,122.5,26a8.8,8.8,0,0,1,8.79,8.78" style="fill:#fff"/>
    <path d="M108.23,26.64a8.79,8.79,0,1,1-8.78-8.78,8.79,8.79,0,0,1,8.78,8.78" style="fill:#fff"/>
    <circle cx="170.5" cy="92.53" r="58.54" style="fill:#f09c13"/>
    <path
        d="M170.5,152.82a60.29,60.29,0,1,1,60.28-60.29A60.36,60.36,0,0,1,170.5,152.82Zm0-117.07a56.79,56.79,0,1,0,56.78,56.78A56.85,56.85,0,0,0,170.5,35.75Z"
        style="fill:#fff"/>
    <circle cx="90.26" cy="211.85" r="47.89" style="fill:#f09c13"/>
    <path
        d="M90.26,261.5a49.65,49.65,0,1,1,49.64-49.65A49.7,49.7,0,0,1,90.26,261.5Zm0-95.79a46.15,46.15,0,1,0,46.14,46.14A46.2,46.2,0,0,0,90.26,165.71Z"
        style="fill:#fff"/>
    <circle cx="50.88" cy="33.68" r="31.93" style="fill:#f09c13"/>
    <path
        d="M50.88,67.36A33.68,33.68,0,1,1,84.55,33.68,33.72,33.72,0,0,1,50.88,67.36Zm0-63.86A30.18,30.18,0,1,0,81.05,33.68,30.22,30.22,0,0,0,50.88,3.5Z"
        style="fill:#fff"/>
</svg>
