<?xml version="1.0" encoding="utf-8"?>
<svg version="1.1" id="Layer_1" xmlns="http://www.w3.org/2000/svg" xmlns:xlink="http://www.w3.org/1999/xlink" x="0px"
	y="0px" viewBox="0 0 16 16" style="enable-background:new 0 0 16 16;" xml:space="preserve">
	<style type="text/css">
		.st0 {
			fill: #018BFF;
		}

		.st1 {
			fill: #FFFFFF;
		}
	</style>
	<g>
		<g>
			<path class="st0" d="M11.48,16H4.52C2.03,16,0,13.97,0,11.48V4.52C0,2.03,2.03,0,4.52,0h6.96C13.97,0,16,2.03,16,4.52v6.96
			C16,13.97,13.97,16,11.48,16z" />
		</g>
		<g>
			<path class="st1" d="M4.03,11.19c-0.29,0-0.57-0.11-0.79-0.33c-0.44-0.44-0.44-1.15,0-1.58l1.75-1.75L3.18,5.72
			c-0.44-0.44-0.44-1.15,0-1.58c0.44-0.44,1.15-0.44,1.58,0l2.6,2.6c0.44,0.44,0.44,1.15,0,1.58l-2.54,2.54
			C4.6,11.08,4.32,11.19,4.03,11.19z" />
		</g>
		<g>
			<path class="st1" d="M12.05,11.52H8.77c-0.62,0-1.12-0.5-1.12-1.12c0-0.62,0.5-1.12,1.12-1.12h3.27c0.62,0,1.12,0.5,1.12,1.12
			C13.17,11.02,12.66,11.52,12.05,11.52z" />
		</g>
	</g>
</svg>