<svg width="164" height="39" viewBox="0 0 164 39" fill="none" xmlns="http://www.w3.org/2000/svg">
    <path
        d="M21.362 10.8125C16.5826 10.8125 13.375 13.6482 13.375 19.1513V23.0733C13.8451 22.846 14.3671 22.7134 14.9213 22.7134C15.4821 22.7134 16.0108 22.8482 16.4842 23.0822V19.1513C16.4842 15.5824 18.4165 13.7473 21.362 13.7473C24.3076 13.7473 26.2399 15.5824 26.2399 19.1513V27.724H29.3491V19.1513C29.3491 13.6147 26.1414 10.8125 21.362 10.8125Z"
        fill="white" />
    <path
        d="M45.12 17.8156C44.4973 15.1805 42.3703 13.7465 39.7511 13.7465C37.0666 13.7465 35.038 15.2139 34.4154 17.8156H45.12ZM31.0439 19.4836C31.0439 14.4807 34.6453 10.8105 39.751 10.8105C44.8578 10.8105 48.3929 14.4807 48.3929 19.4836V20.6513H34.3169C34.7759 23.5861 36.9361 25.2206 39.7511 25.2206C41.8461 25.2206 43.3193 24.5533 44.2683 23.1192H47.706C46.4616 26.1877 43.5162 28.1566 39.7511 28.1566C34.6454 28.1554 31.0439 24.4874 31.0439 19.4836Z"
        fill="white" />
    <path
        d="M64.3299 19.4864C64.3299 16.1515 62.1045 13.7493 58.7652 13.7493C55.4259 13.7493 53.2005 16.1515 53.2005 19.4864C53.2005 22.8223 55.4259 25.2234 58.7652 25.2234C62.1045 25.2234 64.3299 22.8212 64.3299 19.4864ZM50.0581 19.4864C50.0581 14.4835 53.6584 10.8145 58.7652 10.8145C63.872 10.8145 67.4724 14.4835 67.4724 19.4864C67.4724 24.4903 63.8721 28.1594 58.7653 28.1594C53.6584 28.1583 50.0581 24.4903 50.0581 19.4864Z"
        fill="white" />
    <path
        d="M85.255 31.0034H85.6144C87.6109 31.0034 88.3641 30.102 88.3641 27.7678V11.3633H91.4733V27.5672C91.4733 31.6374 89.9026 33.7389 85.9085 33.7389H85.2549V31.0034H85.255Z"
        fill="white" />
    <path
        d="M89.9294 10.054C91.3994 10.054 92.5918 8.8395 92.5918 7.34203C92.5918 5.84339 91.3994 4.62891 89.9294 4.62891C88.4594 4.62891 87.2671 5.84339 87.2671 7.34203C87.2671 8.8395 88.4595 10.054 89.9294 10.054Z"
        fill="white" />
    <path
        d="M14.798 23.7045C14.2328 23.7045 13.7108 23.8872 13.2805 24.1947L10.2321 21.895C10.3151 21.6332 10.3714 21.3591 10.3714 21.0694C10.3714 19.5741 9.17795 18.3574 7.71019 18.3574C6.24244 18.3574 5.04785 19.5741 5.04785 21.0694C5.04785 22.5646 6.24244 23.7813 7.71019 23.7813C8.27429 23.7813 8.79635 23.5986 9.22774 23.2922L12.2761 25.5908C12.1932 25.8526 12.1357 26.1267 12.1357 26.4164C12.1357 26.6705 12.1821 26.9112 12.2463 27.1451L9.38268 29.1384C8.92365 28.7573 8.34624 28.5189 7.71027 28.5189C6.24251 28.5189 5.04792 29.7356 5.04792 31.2309C5.04792 32.7272 6.24251 33.944 7.71027 33.944C9.17802 33.944 10.3715 32.7273 10.3715 31.2309C10.3715 31.0136 10.3405 30.8052 10.293 30.6024L13.2042 28.5757C13.6499 28.9189 14.1986 29.1294 14.7981 29.1294C16.2659 29.1294 17.4604 27.9127 17.4604 26.4163C17.4604 24.9212 16.2659 23.7045 14.798 23.7045Z"
        fill="white" />
    <path
        d="M72.165 21.3271C72.0732 21.4586 72.019 21.619 72.019 21.7917C72.019 22.233 72.3663 22.5895 72.7999 22.5895H72.8087H80.5878V12.4168C80.5867 11.8909 80.2118 11.7004 80.047 11.6447C79.985 11.6247 79.88 11.6046 79.766 11.6046C79.5769 11.6046 79.3413 11.6725 79.1478 11.9388L72.1662 21.3249L72.165 21.3271ZM83.6981 29.3093H80.5878V25.4007H72.7026C71.1286 25.4007 69.7637 24.6152 69.1388 23.3506C68.5548 22.1673 68.7129 20.7634 69.5635 19.5957L76.6502 10.1338C77.6711 8.73218 79.3844 8.17617 81.0104 8.7232C82.6385 9.26919 83.6937 10.7488 83.6981 12.4948V22.5896H86.0364V25.4007H83.6981V29.3093Z"
        fill="white" />
    <path
        d="M99.4888 19.7993C99.4888 16.3968 101.901 13.9883 105.323 13.9883C108.745 13.9883 111.136 16.3526 111.136 19.7993V25.1907H109.775V22.4951C109.008 24.4393 107.209 25.478 105.104 25.478C102.055 25.478 99.4888 23.2903 99.4888 19.7993ZM109.666 19.7331C109.666 17.2142 107.911 15.3581 105.323 15.3581C102.735 15.3581 100.98 17.2142 100.98 19.7331C100.98 22.252 102.735 24.1081 105.323 24.1081C107.911 24.1082 109.666 22.252 109.666 19.7331Z"
        fill="white" />
    <path
        d="M116.466 19.976V14.2754H117.935V19.976C117.935 22.6496 119.471 24.1079 121.818 24.1079C124.165 24.1079 125.7 22.6496 125.7 19.976V14.2754H127.17V19.976C127.17 23.5997 125.021 25.4778 121.818 25.4778C118.616 25.4778 116.466 23.5997 116.466 19.976Z"
        fill="white" />
    <path
        d="M132.501 18.6507C132.501 15.5128 134.365 13.9883 137.063 13.9883C139.761 13.9883 141.603 15.5128 141.603 18.6726V18.8053H140.156V18.6507C140.156 16.3745 138.905 15.3582 137.063 15.3582C135.199 15.3582 133.97 16.3745 133.97 18.6507V25.1907H132.5V18.6507H132.501Z"
        fill="white" />
    <path
        d="M145.793 19.7993C145.793 16.3968 148.206 13.9883 151.628 13.9883C155.049 13.9883 157.44 16.3526 157.44 19.7993V25.1907H156.081V22.4951C155.313 24.4393 153.514 25.478 151.409 25.478C148.36 25.478 145.793 23.2903 145.793 19.7993ZM155.971 19.7331C155.971 17.2142 154.216 15.3581 151.628 15.3581C149.039 15.3581 147.285 17.2142 147.285 19.7331C147.285 22.252 149.039 24.1081 151.628 24.1081C154.216 24.1081 155.971 22.252 155.971 19.7331Z"
        fill="white" />
</svg>