<svg xmlns="http://www.w3.org/2000/svg" width="203" height="176" viewBox="0 0 203 176" fill="none">
  <path opacity="0.1" d="M190.019 151.582C206.247 160.938 206.33 176.091 190.019 185.488L111.655 231.025C102.581 235.638 92.5457 238.043 82.3664 238.043C72.1871 238.043 62.1519 235.638 53.0782 231.025L-25.8243 185.488C-42.0106 176.132 -42.1348 160.979 -25.8243 151.582L52.5815 106.045C61.6479 101.432 71.6763 99.0271 81.8489 99.0271C92.0216 99.0271 102.05 101.432 111.117 106.045L190.019 151.582Z" fill="#4C99A4"/>
  <path fill-rule="evenodd" clip-rule="evenodd" d="M-38.037 71.8887V139.367C-38.037 145.484 -34.0468 151.642 -25.8242 156.346L-25.8245 156.422L53.1197 202L53.2853 134.523L-25.6175 88.9448L-25.6179 89.076V88.9447C-33.8973 84.3083 -38.037 78.0568 -38.037 71.8887Z" fill="#5CC3C9"/>
  <path d="M-37.537 71.8887C-37.537 71.6125 -37.7608 71.3887 -38.037 71.3887C-38.3131 71.3887 -38.537 71.6125 -38.537 71.8887H-37.537ZM-25.8242 156.346L-25.3242 156.348C-25.3237 156.168 -25.4198 156.002 -25.5759 155.912L-25.8242 156.346ZM-25.8245 156.422L-26.3245 156.42C-26.325 156.6 -26.2296 156.765 -26.0745 156.855L-25.8245 156.422ZM53.1197 202L52.8697 202.433C53.0242 202.522 53.2146 202.522 53.3692 202.433C53.5238 202.344 53.6193 202.18 53.6197 202.001L53.1197 202ZM53.2853 134.523L53.7853 134.524C53.7857 134.345 53.6904 134.18 53.5354 134.09L53.2853 134.523ZM-25.6175 88.9448L-25.3674 88.5118C-25.5218 88.4226 -25.7121 88.4224 -25.8668 88.5113C-26.0214 88.6003 -26.1169 88.7649 -26.1175 88.9432L-25.6175 88.9448ZM-25.6179 89.076H-26.1179C-26.1179 89.3518 -25.8945 89.5755 -25.6186 89.576C-25.3428 89.5764 -25.1187 89.3533 -25.1179 89.0775L-25.6179 89.076ZM-25.6179 88.9447H-25.1179C-25.1179 88.7638 -25.2157 88.5969 -25.3736 88.5085L-25.6179 88.9447ZM-37.537 139.367V71.8887H-38.537V139.367H-37.537ZM-25.5759 155.912C-33.7041 151.262 -37.537 145.244 -37.537 139.367H-38.537C-38.537 145.724 -34.3895 152.022 -26.0725 156.78L-25.5759 155.912ZM-25.3245 156.423L-25.3242 156.348L-26.3242 156.345L-26.3245 156.42L-25.3245 156.423ZM53.3697 201.567L-25.5745 155.989L-26.0745 156.855L52.8697 202.433L53.3697 201.567ZM52.7853 134.522L52.6197 201.999L53.6197 202.001L53.7853 134.524L52.7853 134.522ZM-25.8676 89.3777L53.0352 134.956L53.5354 134.09L-25.3674 88.5118L-25.8676 89.3777ZM-25.1179 89.0775L-25.1175 88.9463L-26.1175 88.9432L-26.1179 89.0744L-25.1179 89.0775ZM-26.1179 88.9447V89.076H-25.1179V88.9447H-26.1179ZM-38.537 71.8887C-38.537 78.3003 -34.2361 84.6916 -25.8622 89.381L-25.3736 88.5085C-33.5584 83.925 -37.537 77.8133 -37.537 71.8887H-38.537Z" fill="#0A6190"/>
  <path fill-rule="evenodd" clip-rule="evenodd" d="M202.221 72.3869V139.865C202.221 145.982 198.231 152.14 190.009 156.844L190.009 156.92L111.065 202.498L110.9 135.021L189.802 89.4426L189.802 89.4427C198.082 84.8063 202.221 78.555 202.221 72.3869Z" fill="#C3F8FB"/>
  <path d="M201.721 72.3869C201.721 72.1108 201.945 71.8869 202.221 71.8869C202.497 71.8869 202.721 72.1108 202.721 72.3869H201.721ZM190.009 156.844L189.509 156.846C189.509 156.666 189.605 156.499 189.761 156.41L190.009 156.844ZM190.009 156.92L190.509 156.918C190.51 157.097 190.415 157.263 190.259 157.353L190.009 156.92ZM111.065 202.498L111.315 202.931C111.161 203.02 110.97 203.02 110.816 202.931C110.661 202.842 110.566 202.678 110.565 202.499L111.065 202.498ZM110.9 135.021L110.4 135.022C110.399 134.843 110.495 134.677 110.65 134.588L110.9 135.021ZM189.802 89.4426L189.552 89.0096C189.707 88.9205 189.897 88.9202 190.051 89.0088C190.206 89.0974 190.301 89.2615 190.302 89.4396L189.802 89.4426ZM189.802 89.4427L190.047 89.879C189.892 89.9654 189.704 89.9639 189.551 89.8749C189.398 89.7858 189.304 89.6226 189.303 89.4457L189.802 89.4427ZM201.721 139.865V72.3869H202.721V139.865H201.721ZM189.761 156.41C197.889 151.76 201.721 145.742 201.721 139.865H202.721C202.721 146.223 198.574 152.52 190.258 157.278L189.761 156.41ZM189.509 156.921L189.509 156.846L190.509 156.843L190.509 156.918L189.509 156.921ZM110.815 202.065L189.759 156.487L190.259 157.353L111.315 202.931L110.815 202.065ZM111.4 135.02L111.565 202.497L110.565 202.499L110.4 135.022L111.4 135.02ZM190.053 89.8755L111.15 135.454L110.65 134.588L189.552 89.0096L190.053 89.8755ZM189.303 89.4457L189.303 89.4456L190.302 89.4396L190.302 89.4398L189.303 89.4457ZM202.721 72.3869C202.721 78.7984 198.42 85.1896 190.047 89.879L189.558 89.0065C197.743 84.423 201.721 78.3115 201.721 72.3869H202.721Z" fill="#0A6190"/>
  <path d="M190.019 55.081C206.247 64.4367 206.33 79.5898 190.019 88.9869L111.655 134.524C102.581 139.137 92.5457 141.542 82.3664 141.542C72.1871 141.542 62.1519 139.137 53.0782 134.524L-25.8243 88.9869C-42.0106 79.6312 -42.1348 64.4781 -25.8243 55.081L52.5815 9.54422C61.6479 4.93096 71.6763 2.52612 81.8489 2.52612C92.0216 2.52612 102.05 4.93096 111.117 9.54422L190.019 55.081Z" fill="white" stroke="#0A6190" stroke-linejoin="round"/>
  <path d="M111.861 134.524V202C102.8 206.633 92.7697 209.049 82.5934 209.049C72.4172 209.049 62.3865 206.633 53.3259 202V134.524C62.3943 139.131 72.4219 141.53 82.5934 141.53C92.7649 141.53 102.792 139.131 111.861 134.524Z" fill="#5CC3C9" stroke="#0A6190" stroke-linejoin="round"/>
  <path d="M64.3176 122.245L-13.1388 77.5299C-19.6425 73.7753 -19.6425 67.688 -13.1389 63.9334L57.407 23.2072H104.874L175.42 63.9334C181.923 67.6879 181.923 73.7753 175.42 77.5299L97.9631 122.245C88.6722 127.609 73.6086 127.609 64.3176 122.245Z" stroke="#0A6190"/>
  <path fill-rule="evenodd" clip-rule="evenodd" d="M71.6141 15.0056C76.8754 11.9682 85.4057 11.9682 90.667 15.0056L181.133 67.2318C184.482 69.1647 184.482 72.2985 181.133 74.2313L168.547 81.4976L83.6637 32.4946C82.2702 31.6902 80.0109 31.6902 78.6174 32.4946L-6.26568 81.4976L-18.8523 74.2313C-22.2004 72.2985 -22.2004 69.1647 -18.8523 67.2318L71.6141 15.0056Z" fill="#5CC3C9"/>
  <path d="M90.667 15.0056L90.4171 15.4386L90.667 15.0056ZM71.6141 15.0056L71.3641 14.5725L71.6141 15.0056ZM181.133 67.2318L180.883 67.6648L181.133 67.2318ZM181.133 74.2313L180.883 73.7983L181.133 74.2313ZM168.547 81.4976L168.297 81.9306L168.547 82.075L168.797 81.9306L168.547 81.4976ZM83.6637 32.4946L83.9137 32.0616V32.0616L83.6637 32.4946ZM78.6174 32.4946L78.3674 32.0616V32.0616L78.6174 32.4946ZM-6.26568 81.4976L-6.51566 81.9306L-6.26568 82.075L-6.01569 81.9306L-6.26568 81.4976ZM-18.8523 74.2313L-19.1023 74.6644H-19.1023L-18.8523 74.2313ZM-18.8523 67.2318L-19.1023 66.7988H-19.1023L-18.8523 67.2318ZM90.917 14.5725C88.1925 12.9997 84.653 12.2275 81.1406 12.2275C77.6281 12.2275 74.0886 12.9997 71.3641 14.5725L71.864 15.4386C74.4008 13.9741 77.7571 13.2275 81.1406 13.2275C84.524 13.2275 87.8803 13.9741 90.4171 15.4386L90.917 14.5725ZM181.383 66.7988L90.917 14.5725L90.4171 15.4386L180.883 67.6648L181.383 66.7988ZM181.383 74.6644C183.149 73.6454 184.145 72.2399 184.145 70.7316C184.145 69.2233 183.149 67.8178 181.383 66.7988L180.883 67.6648C182.466 68.5787 183.145 69.7065 183.145 70.7316C183.145 71.7566 182.466 72.8845 180.883 73.7983L181.383 74.6644ZM168.797 81.9306L181.383 74.6644L180.883 73.7983L168.297 81.0646L168.797 81.9306ZM168.797 81.0646L83.9137 32.0616L83.4138 32.9277L168.297 81.9306L168.797 81.0646ZM83.9137 32.0616C83.1231 31.6052 82.1183 31.3913 81.1406 31.3913C80.1628 31.3913 79.158 31.6052 78.3674 32.0616L78.8673 32.9277C79.4702 32.5796 80.2918 32.3913 81.1406 32.3913C81.9893 32.3913 82.8109 32.5796 83.4138 32.9277L83.9137 32.0616ZM78.3674 32.0616L-6.51566 81.0646L-6.01569 81.9306L78.8673 32.9277L78.3674 32.0616ZM-19.1023 74.6644L-6.51566 81.9306L-6.01569 81.0646L-18.6023 73.7983L-19.1023 74.6644ZM-19.1023 66.7988C-20.8674 67.8178 -21.8634 69.2233 -21.8634 70.7316C-21.8634 72.2399 -20.8674 73.6453 -19.1023 74.6644L-18.6023 73.7983C-20.1853 72.8845 -20.8634 71.7566 -20.8634 70.7316C-20.8634 69.7065 -20.1853 68.5787 -18.6023 67.6648L-19.1023 66.7988ZM71.3641 14.5725L-19.1023 66.7988L-18.6023 67.6648L71.864 15.4386L71.3641 14.5725Z" fill="#0A6190"/>
  <path opacity="0.3" fill-rule="evenodd" clip-rule="evenodd" d="M15.4133 83.6654C11.5506 85.8183 11.566 89.3096 15.4593 91.4626C19.2163 93.5542 25.2 93.6274 29.0853 91.6822L53.4761 103.773C49.8617 106.634 50.3685 110.616 54.9965 113.175C60.1732 116.057 68.5293 116.057 73.6652 113.175C75.3092 112.259 76.4248 111.16 77.0122 109.996L94.6919 111.327C95.0558 112.312 95.9278 113.25 97.3081 114.014C101.042 116.092 107.069 116.092 110.774 114.014C114.07 112.176 114.421 109.323 111.829 107.262L130.767 94.3927C135.803 96.9613 143.595 96.8877 148.435 94.1718C153.41 91.399 153.39 86.9026 148.376 84.1298C144.901 82.2081 139.946 81.6182 135.576 82.3603L97.6616 57.4078C101.182 55.3361 101.107 52.0646 97.4352 50.0342C93.7013 47.9694 87.6742 47.9694 83.9698 50.0342C80.943 51.7213 80.3991 54.2652 82.338 56.2658L59.7968 67.0655C54.4965 65.0366 47.1981 65.3285 42.5105 67.9413C37.921 70.4994 37.3388 74.4404 40.7638 77.359L29.619 83.759C29.5646 83.7275 29.5095 83.6963 29.4536 83.6654C25.5603 81.5124 19.2759 81.5124 15.4133 83.6654ZM96.6385 57.9317C92.9127 59.5801 87.4769 59.4402 84.0139 57.5122C83.7064 57.3422 83.4241 57.1634 83.167 56.9774L61.015 67.5907C61.2462 67.7025 61.4723 67.8194 61.6927 67.9413C65.1033 69.8273 66.3356 72.465 65.3898 74.8905L82.6506 81.6446C83.0821 80.9436 83.7998 80.2853 84.8037 79.7257C88.3391 77.7552 94.0911 77.7552 97.6545 79.7257C101.218 81.6963 101.232 84.8918 97.6966 86.8624C94.1613 88.8462 88.4093 88.8462 84.8458 86.8624C82.7271 85.6907 81.8631 84.086 82.254 82.5632L64.9343 75.7861C64.2867 76.8114 63.2271 77.7738 61.7555 78.594C60.265 79.4304 58.5105 80.0306 56.6403 80.3945L62.476 100.727C66.4173 100.431 70.5603 101.124 73.6041 102.807C76.667 104.501 77.9248 106.818 77.3775 109.02L94.4971 110.31C94.4734 108.945 95.3958 107.577 97.264 106.536C100.968 104.471 106.996 104.471 110.729 106.536C110.801 106.575 110.872 106.616 110.941 106.656L129.796 93.8439C125.345 91.0552 125.511 86.7958 130.294 84.1298C131.45 83.4852 132.775 82.9905 134.191 82.6456L96.6385 57.9317ZM30.1238 91.0809C32.991 89.1547 33.1316 86.395 30.5456 84.38L41.6286 78.0155C41.9224 78.215 42.2373 78.4082 42.5733 78.594C46.1272 80.5725 51.1392 81.2292 55.6485 80.5639L61.4639 100.825C59.0685 101.112 56.7916 101.773 54.9354 102.807C54.7529 102.909 54.577 103.013 54.4076 103.119L30.1238 91.0809Z" fill="#4C99A4"/>
  <path d="M64.1951 100.09L105.12 101.8L141.471 78.0315L89.9276 45.9605L52.3137 59.1235M64.1951 100.09L20.8842 80.219L52.3137 59.1235M64.1951 100.09L52.3137 59.1235M52.3137 59.1235L91.7232 72.6063" stroke="#1A1B1D"/>
  <circle cx="10.2076" cy="10.2076" r="10.2076" transform="matrix(-1 -8.9407e-08 -8.9407e-08 1 101.457 63.0678)" fill="white"/>
  <path opacity="0.5" fill-rule="evenodd" clip-rule="evenodd" d="M81.864 69.2559C83.2646 73.2217 87.0463 76.0633 91.4916 76.0633C95.7019 76.0633 99.3168 73.5143 100.877 69.8754C101.253 70.939 101.457 72.0834 101.457 73.2756C101.457 78.9131 96.8872 83.4832 91.2497 83.4832C85.6121 83.4832 81.042 78.9131 81.042 73.2756C81.042 71.8483 81.335 70.4895 81.864 69.2559Z" fill="#F5F6F6"/>
  <circle cx="10.2076" cy="10.2076" r="9.70762" transform="matrix(-1 -8.9407e-08 -8.9407e-08 1 101.457 63.0678)" stroke="#1A1B1D"/>
  <circle cx="10.2076" cy="10.2076" r="10.2076" transform="matrix(-1 -8.9407e-08 -8.9407e-08 1 101.458 35.3492)" fill="#BCF194"/>
  <path opacity="0.5" fill-rule="evenodd" clip-rule="evenodd" d="M81.8645 41.5365C83.2651 45.5024 87.0468 48.344 91.4921 48.344C95.7021 48.344 99.3169 45.7953 100.878 42.1566C101.253 43.2202 101.458 44.3646 101.458 45.5568C101.458 51.1943 96.8874 55.7644 91.2499 55.7644C85.6124 55.7644 81.0423 51.1943 81.0423 45.5568C81.0423 44.1293 81.3353 42.7702 81.8645 41.5365Z" fill="#4D8622"/>
  <circle cx="10.2076" cy="10.2076" r="9.70762" transform="matrix(-1 -8.9407e-08 -8.9407e-08 1 101.458 35.3492)" stroke="#1A1B1D"/>
  <circle cx="14.4599" cy="14.4599" r="14.4599" transform="matrix(-1 -8.9407e-08 -8.9407e-08 1 78.7603 82.4982)" fill="white"/>
  <path opacity="0.5" fill-rule="evenodd" clip-rule="evenodd" d="M51.0053 91.263C52.9893 96.8811 58.3464 100.907 64.6437 100.907C70.6074 100.907 75.728 97.2963 77.9388 92.1419C78.4708 93.6484 78.7603 95.2695 78.7603 96.9581C78.7603 104.944 72.2864 111.418 64.3004 111.418C56.3144 111.418 49.8405 104.944 49.8405 96.9581C49.8405 94.9359 50.2556 93.0107 51.0053 91.263Z" fill="#F5F6F6"/>
  <circle cx="14.4599" cy="14.4599" r="13.9599" transform="matrix(-1 -8.9407e-08 -8.9407e-08 1 78.7603 82.4982)" stroke="#1A1B1D"/>
  <circle cx="8.99683" cy="8.99683" r="8.99683" transform="matrix(-1 -8.9407e-08 -8.9407e-08 1 31.4535 69.713)" fill="#BCF194"/>
  <path opacity="0.5" fill-rule="evenodd" clip-rule="evenodd" d="M14.1849 75.1661C15.4193 78.6616 18.7525 81.1662 22.6705 81.1662C26.381 81.1662 29.5668 78.9201 30.9424 75.7134C31.2735 76.6508 31.4536 77.6595 31.4536 78.7102C31.4536 83.679 27.4256 87.707 22.4568 87.707C17.488 87.707 13.4599 83.679 13.4599 78.7102C13.4599 77.4518 13.7183 76.2537 14.1849 75.1661Z" fill="#4D8622"/>
  <circle cx="8.99683" cy="8.99683" r="8.49683" transform="matrix(-1 -8.9407e-08 -8.9407e-08 1 31.4535 69.713)" stroke="#1A1B1D"/>
  <circle cx="11.6155" cy="11.6155" r="11.6155" transform="matrix(-1 -8.9407e-08 -8.9407e-08 1 115.825 86.0442)" fill="#C3F8FB"/>
  <path opacity="0.5" fill-rule="evenodd" clip-rule="evenodd" d="M93.5295 93.0854C95.1232 97.5986 99.4266 100.832 104.485 100.832C109.276 100.832 113.39 97.9319 115.165 93.7911C115.593 95.0012 115.825 96.3033 115.825 97.6597C115.825 104.075 110.625 109.275 104.21 109.275C97.7946 109.275 92.5941 104.075 92.5941 97.6597C92.5941 96.0355 92.9275 94.4892 93.5295 93.0854Z" fill="#51A6B1"/>
  <circle cx="11.6155" cy="11.6155" r="11.1155" transform="matrix(-1 -8.9407e-08 -8.9407e-08 1 115.825 86.0442)" stroke="#1A1B1D"/>
  <circle cx="13.5648" cy="13.5648" r="13.5648" transform="matrix(-1 -8.9407e-08 -8.9407e-08 1 65.6976 45.5561)" fill="#C3F8FB"/>
  <path opacity="0.5" fill-rule="evenodd" clip-rule="evenodd" d="M39.6608 53.7781C41.5218 59.0487 46.5474 62.8254 52.4552 62.8254C58.0497 62.8254 62.8532 59.4386 64.9272 54.6034C65.4262 56.0165 65.6976 57.537 65.6976 59.1209C65.6976 66.6125 59.6245 72.6857 52.1328 72.6857C44.6412 72.6857 38.5681 66.6125 38.5681 59.1209C38.5681 57.2238 38.9575 55.4177 39.6608 53.7781Z" fill="#51A6B1"/>
  <circle cx="13.5648" cy="13.5648" r="13.0648" transform="matrix(-1 -8.9407e-08 -8.9407e-08 1 65.6976 45.5561)" stroke="#1A1B1D"/>
  <circle cx="13.5648" cy="13.5648" r="13.5648" transform="matrix(-1 -8.9407e-08 -8.9407e-08 1 152.929 64.3742)" fill="#C3F8FB"/>
  <path opacity="0.5" fill-rule="evenodd" clip-rule="evenodd" d="M126.892 72.5963C128.753 77.8671 133.779 81.6439 139.686 81.6439C145.281 81.6439 150.085 78.257 152.159 73.4217C152.658 74.8347 152.929 76.3551 152.929 77.9389C152.929 85.4306 146.856 91.5037 139.364 91.5037C131.873 91.5037 125.799 85.4306 125.799 77.9389C125.799 76.0419 126.189 74.2359 126.892 72.5963Z" fill="#C3F8FB"/>
  <circle cx="13.5648" cy="13.5648" r="13.0648" transform="matrix(-1 -8.9407e-08 -8.9407e-08 1 152.929 64.3742)" stroke="#1A1B1D"/>
</svg>