<svg width="15" height="15" viewBox="0 0 15 15" fill="none" xmlns="http://www.w3.org/2000/svg">
    <rect width="15" height="15" />
    <path
        d="M2.2535 14.6362C1.53066 14.6362 0.941895 14.047 0.941895 13.3237V1.94867C0.941895 1.22534 1.53066 0.636169 2.2535 0.636169H11.0267C11.3707 0.636169 11.6971 0.770336 11.9419 1.0095L13.6616 2.6895C13.9123 2.9345 14.058 3.27867 14.058 3.62867V13.3237C14.058 14.047 13.4692 14.6362 12.7464 14.6362H2.2535ZM2.2535 1.51117C2.0145 1.51117 1.8163 1.7095 1.8163 1.94867V13.3237C1.8163 13.5628 2.0145 13.7612 2.2535 13.7612H12.7464C12.9854 13.7612 13.1836 13.5628 13.1836 13.3237V3.62867C13.1836 3.512 13.137 3.39534 13.0495 3.31367L11.3298 1.63367C11.2482 1.552 11.1375 1.51117 11.0267 1.51117H2.2535Z"
        fill="currentColor" />
    <path
        d="M4.03144 5.88564C3.78661 5.88564 3.59424 5.68744 3.59424 5.44843C3.59424 5.20943 3.78661 5.01123 4.03144 5.01123H11.0267C11.2657 5.01123 11.4639 5.20943 11.4639 5.44843C11.4639 5.68744 11.2657 5.88564 11.0267 5.88564H4.03144Z"
        fill="currentColor" />
    <path
        d="M4.03144 8.51058C3.79244 8.51058 3.59424 8.31238 3.59424 8.07337C3.59424 7.83437 3.78661 7.63617 4.03144 7.63617H11.0267C11.2657 7.63617 11.4639 7.83437 11.4639 8.07337C11.4639 8.31238 11.2657 8.51058 11.0267 8.51058H4.03144Z"
        fill="currentColor" />
    <path
        d="M4.03144 11.1356C3.79244 11.1356 3.59424 10.9374 3.59424 10.6984C3.59424 10.4594 3.79244 10.2612 4.03144 10.2612H7.52907C7.76807 10.2612 7.96627 10.4594 7.96627 10.6984C7.96627 10.9374 7.76807 11.1356 7.52907 11.1356H4.03144Z"
        fill="currentColor" />
</svg>