<svg width="10" height="10" viewBox="0 0 10 10" fill="none" xmlns="http://www.w3.org/2000/svg">
    <path
        d="M2.49267 3.85644C2.42233 3.89771 2.36239 3.95456 2.31746 4.02262C2.27254 4.09069 2.24382 4.16815 2.23352 4.24904C2.22322 4.32994 2.23161 4.41213 2.25804 4.48928C2.28448 4.56643 2.32826 4.63648 2.38601 4.69406L5.30596 7.61401C5.36354 7.67176 5.43359 7.71554 5.51074 7.74197C5.58789 7.76841 5.67007 7.7768 5.75097 7.7665C5.83187 7.7562 5.90933 7.72748 5.97739 7.68255C6.04546 7.63763 6.10231 7.57769 6.14358 7.50735C6.48944 6.91233 6.59259 6.20687 6.43155 5.53773L8.75279 4.06051C8.82017 4.01766 8.87707 3.96022 8.91928 3.89243C8.96149 3.82465 8.98794 3.74825 8.99668 3.66887C9.00542 3.58949 8.99622 3.50917 8.96976 3.43383C8.9433 3.35848 8.90025 3.29004 8.84381 3.23356L6.76646 1.15621C6.71 1.09975 6.64158 1.05668 6.56625 1.0302C6.49093 1.00371 6.41061 0.994474 6.33124 1.00318C6.25186 1.01188 6.17546 1.03829 6.10765 1.08047C6.03985 1.12265 5.98239 1.17952 5.9395 1.24687L4.46229 3.56846C3.79315 3.40743 3.08769 3.51058 2.49267 3.85644V3.85644Z"
        stroke="currentColor" stroke-linecap="round" stroke-linejoin="round" />
    <path d="M3.84528 6.1543L1 8.99958" stroke="currentColor" stroke-linecap="round" stroke-linejoin="round" />
</svg>