<svg width="15" height="15" viewBox="0 0 15 15" fill="none" xmlns="http://www.w3.org/2000/svg">
    <rect width="15" height="15" />
    <path
        d="M2.25 14.5C1.52667 14.5 0.9375 13.9108 0.9375 13.1875V1.8125C0.9375 1.08917 1.52667 0.5 2.25 0.5H11.0292C11.3733 0.5 11.7 0.634167 11.945 0.873333L13.6658 2.55333C13.9167 2.79833 14.0625 3.1425 14.0625 3.4925V13.1875C14.0625 13.9108 13.4733 14.5 12.75 14.5H2.25ZM2.25 1.375C2.01083 1.375 1.8125 1.57333 1.8125 1.8125V13.1875C1.8125 13.4267 2.01083 13.625 2.25 13.625H12.75C12.9892 13.625 13.1875 13.4267 13.1875 13.1875V3.4925C13.1875 3.37583 13.1408 3.25917 13.0533 3.1775L11.3325 1.4975C11.2508 1.41583 11.14 1.375 11.0292 1.375H2.25Z"
        fill="currentColor" />
    <path
        d="M3.87756 8.87665C3.6384 8.87665 3.44006 8.67831 3.44006 8.43915C3.44006 8.19998 3.6384 8.00165 3.87756 8.00165H10.8776C11.1167 8.00165 11.3151 8.19998 11.3151 8.43915C11.3151 8.67831 11.1167 8.87665 10.8776 8.87665H3.87756Z"
        fill="currentColor" />
    <path
        d="M3.87756 11.5016C3.6384 11.5016 3.44006 11.3033 3.44006 11.0641C3.44006 10.825 3.6384 10.6266 3.87756 10.6266H7.37756C7.61673 10.6266 7.81506 10.825 7.81506 11.0641C7.81506 11.3033 7.61673 11.5016 7.37756 11.5016H3.87756Z"
        fill="currentColor" />
    <path
        d="M4.03503 1.29333V4.79333C4.03503 5.2775 4.42587 5.66833 4.91003 5.66833H9.28503C9.7692 5.66833 10.16 5.2775 10.16 4.79333V1.29333"
        stroke="currentColor" stroke-width="0.75" stroke-linecap="round" stroke-linejoin="round" />
    <path d="M5.78503 3.91833V3.04333" stroke="currentColor" stroke-width="0.75" stroke-linecap="round"
        stroke-linejoin="round" />
</svg>