<svg width="18" height="18" viewBox="0 0 18 18" fill="none" xmlns="http://www.w3.org/2000/svg">
  <g>
    <path
      d="M16.3125 14.0625H8.4375L3.9375 17.4375V14.0625H1.6875C1.38913 14.0625 1.10298 13.944 0.892005 13.733C0.681026 13.522 0.5625 13.2359 0.5625 12.9375V1.6875C0.5625 1.38913 0.681026 1.10298 0.892005 0.892005C1.10298 0.681026 1.38913 0.5625 1.6875 0.5625H16.3125C16.6109 0.5625 16.897 0.681026 17.108 0.892005C17.319 1.10298 17.4375 1.38913 17.4375 1.6875V12.9375C17.4375 13.2359 17.319 13.522 17.108 13.733C16.897 13.944 16.6109 14.0625 16.3125 14.0625Z"
      stroke="white" stroke-width="1.5" stroke-linecap="round" stroke-linejoin="round" />
    <path
      d="M9.5625 11.25C9.63709 11.25 9.70863 11.2204 9.76137 11.1676C9.81412 11.1149 9.84375 11.0433 9.84375 10.9688C9.84375 10.8942 9.81412 10.8226 9.76137 10.7699C9.70863 10.7171 9.63709 10.6875 9.5625 10.6875C9.48791 10.6875 9.41637 10.7171 9.36363 10.7699C9.31088 10.8226 9.28125 10.8942 9.28125 10.9688C9.28125 11.0433 9.31088 11.1149 9.36363 11.1676C9.41637 11.2204 9.48791 11.25 9.5625 11.25"
      stroke="white" stroke-width="1.5" stroke-linecap="round" stroke-linejoin="round" />
    <path d="M9.5625 8.4375V3.9375" stroke="white" stroke-width="1.5" stroke-linecap="round" stroke-linejoin="round" />
  </g>
</svg>