<svg width="8" height="8" viewBox="0 0 8 8" fill="none" xmlns="http://www.w3.org/2000/svg">
	<path d="M0.75 8.00033C0.336333 8.00033 0 7.664 0 7.25033V1.75033C0 1.33667 0.336333 1.00033 0.75 1.00033H1.73633L1.62267 0.658333C1.58033 0.532 1.58967 0.396667 1.64933 0.277333C1.70867 0.157667 1.811 0.0686667 1.93767 0.0263333C1.98933 0.009 2.03967 0 2.08667 0L2.103 0.000333333H4.903C5.03667 0.000333333 5.16167 0.052 5.256 0.145667C5.35067 0.24 5.403 0.365333 5.40333 0.498667C5.40367 0.553333 5.39467 0.607333 5.37733 0.659333L5.26333 1.00033H6.25C6.66367 1.00033 7 1.33667 7 1.75033V2.75033C7 2.88833 6.888 3.00033 6.75 3.00033C6.612 3.00033 6.5 2.88833 6.5 2.75033V1.75033C6.5 1.61233 6.388 1.50033 6.25 1.50033H5.09667L5.044 1.65833C4.97567 1.86267 4.78533 2.00033 4.56967 2.00033H2.43033C2.215 2.00033 2.02433 1.863 1.956 1.65867L1.903 1.50033H0.75C0.612 1.50033 0.5 1.61233 0.5 1.75033V7.25033C0.5 7.38833 0.612 7.50033 0.75 7.50033H2.75C2.888 7.50033 3 7.61233 3 7.75033C3 7.88833 2.888 8.00033 2.75 8.00033H0.75ZM2.09633 0.500333L2.43 1.50033H4.56967L4.903 0.500333H2.09633Z"
		fill="#5F6E7A" />
	<path d="M4.25 7.99988C3.83633 7.99988 3.5 7.66354 3.5 7.24988V4.24988C3.5 3.83621 3.83633 3.49988 4.25 3.49988H7.25C7.66367 3.49988 8 3.83621 8 4.24988V7.24988C8 7.66354 7.66367 7.99988 7.25 7.99988H4.25ZM4.25 3.99988C4.112 3.99988 4 4.11188 4 4.24988V7.24988C4 7.38788 4.112 7.49988 4.25 7.49988H7.25C7.388 7.49988 7.5 7.38788 7.5 7.24988V4.24988C7.5 4.11188 7.388 3.99988 7.25 3.99988H4.25Z"
		fill="#5F6E7A" />
	<path d="M4.75 4.99988C4.612 4.99988 4.5 4.88788 4.5 4.74988C4.5 4.61188 4.612 4.49988 4.75 4.49988H6.75C6.888 4.49988 7 4.61188 7 4.74988C7 4.88788 6.888 4.99988 6.75 4.99988H4.75Z"
		fill="#5F6E7A" />
	<path d="M4.75 5.99988C4.612 5.99988 4.5 5.88788 4.5 5.74988C4.5 5.61188 4.612 5.49988 4.75 5.49988H6.75C6.888 5.49988 7 5.61188 7 5.74988C7 5.88788 6.888 5.99988 6.75 5.99988H4.75Z"
		fill="#5F6E7A" />
	<path d="M4.75 6.99988C4.612 6.99988 4.5 6.88788 4.5 6.74988C4.5 6.61188 4.612 6.49988 4.75 6.49988H5.5C5.638 6.49988 5.75 6.61188 5.75 6.74988C5.75 6.88788 5.638 6.99988 5.5 6.99988H4.75Z"
		fill="#5F6E7A" />
</svg>