<svg width="20" height="20" viewBox="0 0 20 20" fill="none" xmlns="http://www.w3.org/2000/svg">
    <title>fit-to-screen</title>
<path d="M14.6802 14.6803L14.1499 14.15L14.1499 14.15L14.6802 14.6803ZM14.6802 5.31961L14.1499 5.84994L14.1499 5.84995L14.6802 5.31961ZM5.31949 5.31961L4.78916 4.78928H4.78916L5.31949 5.31961ZM5.31949 14.6803L5.84982 14.15L5.84982 14.15L5.31949 14.6803ZM16.9508 3.04917L16.4205 3.57951V3.57951L16.9508 3.04917ZM3.04917 3.04917L3.5795 3.5795L3.5795 3.5795L3.04917 3.04917ZM3.04917 16.9508L3.57951 16.4205H3.57951L3.04917 16.9508ZM18.25 11.9824C18.25 11.5682 17.9142 11.2324 17.5 11.2324C17.0858 11.2324 16.75 11.5682 16.75 11.9824H18.25ZM11.977 16.75C11.5627 16.75 11.227 17.0858 11.227 17.5C11.227 17.9142 11.5627 18.25 11.977 18.25V16.75ZM8.1298 18.25C8.54401 18.25 8.8798 17.9142 8.8798 17.5C8.8798 17.0858 8.54401 16.75 8.1298 16.75V18.25ZM3.25 11.9824C3.25 11.5682 2.91421 11.2324 2.5 11.2324C2.08579 11.2324 1.75 11.5682 1.75 11.9824H3.25ZM1.75 8.28647C1.75 8.70069 2.08579 9.03647 2.5 9.03647C2.91421 9.03647 3.25 8.70069 3.25 8.28647H1.75ZM8.1298 3.25C8.54401 3.25 8.8798 2.91421 8.8798 2.5C8.8798 2.08579 8.54401 1.75 8.1298 1.75V3.25ZM11.977 1.75C11.5627 1.75 11.227 2.08579 11.227 2.5C11.227 2.91421 11.5627 3.25 11.977 3.25V1.75ZM16.75 8.28647C16.75 8.70069 17.0858 9.03647 17.5 9.03647C17.9142 9.03647 18.25 8.70069 18.25 8.28647H16.75ZM6.21224 15.8001H13.7875V14.3001H6.21224V15.8001ZM13.7875 15.8001C14.3212 15.8001 14.8331 15.5881 15.2105 15.2107L14.1499 14.15C14.0537 14.2461 13.9234 14.3001 13.7875 14.3001V15.8001ZM15.2105 15.2107C15.5879 14.8332 15.8 14.3213 15.8 13.7876H14.3C14.3 13.9235 14.246 14.0539 14.1499 14.15L15.2105 15.2107ZM15.8 13.7876V6.21236H14.3V13.7876H15.8ZM15.8 6.21236C15.8 5.6786 15.5879 5.16671 15.2105 4.78928L14.1499 5.84995C14.246 5.94607 14.3 6.07643 14.3 6.21236H15.8ZM15.2105 4.78929C14.8331 4.41186 14.3212 4.19983 13.7875 4.19983V5.69983C13.9234 5.69983 14.0537 5.75383 14.1499 5.84994L15.2105 4.78929ZM13.7875 4.19983H6.21224V5.69983H13.7875V4.19983ZM6.21224 4.19983C5.67848 4.19983 5.16658 4.41186 4.78916 4.78928L5.84982 5.84995C5.94594 5.75383 6.0763 5.69983 6.21224 5.69983V4.19983ZM4.78916 4.78928C4.41174 5.16671 4.1997 5.6786 4.1997 6.21236H5.6997C5.6997 6.07643 5.7537 5.94606 5.84982 5.84995L4.78916 4.78928ZM4.1997 6.21236V13.7876H5.6997V6.21236H4.1997ZM4.1997 13.7876C4.1997 14.3213 4.41174 14.8332 4.78916 15.2107L5.84982 14.15C5.7537 14.0539 5.6997 13.9235 5.6997 13.7876H4.1997ZM4.78916 15.2107C5.16658 15.5881 5.67848 15.8001 6.21224 15.8001V14.3001C6.0763 14.3001 5.94594 14.2461 5.84982 14.15L4.78916 15.2107ZM15.625 18.25C16.3212 18.25 16.9889 17.9734 17.4812 17.4812L16.4205 16.4205C16.2095 16.6315 15.9234 16.75 15.625 16.75V18.25ZM17.4812 17.4812C17.9734 16.9889 18.25 16.3212 18.25 15.625H16.75C16.75 15.9234 16.6315 16.2095 16.4205 16.4205L17.4812 17.4812ZM18.25 4.375C18.25 3.67881 17.9734 3.01113 17.4812 2.51884L16.4205 3.57951C16.6315 3.79048 16.75 4.07663 16.75 4.375H18.25ZM17.4812 2.51884C16.9889 2.02656 16.3212 1.75 15.625 1.75V3.25C15.9234 3.25 16.2095 3.36853 16.4205 3.57951L17.4812 2.51884ZM4.375 1.75C3.67881 1.75 3.01113 2.02656 2.51884 2.51884L3.5795 3.5795C3.79048 3.36853 4.07663 3.25 4.375 3.25V1.75ZM2.51884 2.51884C2.02656 3.01113 1.75 3.67881 1.75 4.375H3.25C3.25 4.07663 3.36853 3.79048 3.5795 3.5795L2.51884 2.51884ZM1.75 15.625C1.75 16.3212 2.02656 16.9889 2.51884 17.4812L3.57951 16.4205C3.36853 16.2095 3.25 15.9234 3.25 15.625H1.75ZM2.51884 17.4812C3.01113 17.9734 3.67881 18.25 4.375 18.25V16.75C4.07663 16.75 3.79048 16.6315 3.57951 16.4205L2.51884 17.4812ZM18.25 15.625V11.9824H16.75V15.625H18.25ZM15.625 16.75H11.977V18.25H15.625V16.75ZM4.375 18.25H8.1298V16.75H4.375V18.25ZM3.25 15.625V11.9824H1.75V15.625H3.25ZM1.75 4.375V8.28647H3.25V4.375H1.75ZM4.375 3.25H8.1298V1.75H4.375V3.25ZM15.625 1.75H11.977V3.25H15.625V1.75ZM16.75 4.375V8.28647H18.25V4.375H16.75Z"
      fill="currentColor"/>
</svg>
