<?xml version="1.0" encoding="utf-8"?>
<svg version="1.1" id="Layer_1" xmlns="http://www.w3.org/2000/svg" xmlns:xlink="http://www.w3.org/1999/xlink" x="0px"
	y="0px" viewBox="0 0 24 24" style="enable-background:new 0 0 24 24;" xml:space="preserve" fill=currentColor>
	<title>folder-empty-1</title>
	<g>
		<path d="M2.25,22.5C1.009,22.5,0,21.491,0,20.25V3.75C0,2.509,1.009,1.5,2.25,1.5H7.5c0.704,0,1.377,0.336,1.8,0.9l1.575,2.1H21.75
		C22.991,4.5,24,5.509,24,6.75v13.5c0,1.241-1.009,2.25-2.25,2.25H2.25z M2.25,3C1.836,3,1.5,3.336,1.5,3.75v16.5
		C1.5,20.664,1.836,21,2.25,21h19.5c0.414,0,0.75-0.336,0.75-0.75V6.75C22.5,6.336,22.164,6,21.75,6H10.5
		c-0.235,0-0.459-0.112-0.6-0.3L8.1,3.3C7.959,3.112,7.735,3,7.5,3H2.25z" />
	</g>
</svg>