<?xml version="1.0" encoding="UTF-8" standalone="no"?>
<!DOCTYPE svg PUBLIC "-//W3C//DTD SVG 1.1//EN" "http://www.w3.org/Graphics/SVG/1.1/DTD/svg11.dtd">
<svg width="100%" height="100%" viewBox="0 0 1024 1024" version="1.1" xmlns="http://www.w3.org/2000/svg"
	xmlns:xlink="http://www.w3.org/1999/xlink" xml:space="preserve" xmlns:serif="http://www.serif.com/"
	style="fill-rule:evenodd;clip-rule:evenodd;stroke-linejoin:round;stroke-miterlimit:2;" fill="currentColor">
	<g transform="matrix(42.6203,0,0,42.6593,0.105,63.4261)">
		<path
			d="M2.25,22.5C1.009,22.5 0,21.491 0,20.25L0,3.75C0,2.509 1.009,1.5 2.25,1.5L7.5,1.5C8.204,1.5 8.877,1.836 9.3,2.4L10.875,4.5L21.75,4.5C22.991,4.5 24,5.509 24,6.75L24,20.25C24,21.491 22.991,22.5 21.75,22.5L2.25,22.5ZM2.25,3C1.836,3 1.5,3.336 1.5,3.75L1.5,20.25C1.5,20.664 1.836,21 2.25,21L21.75,21C22.164,21 22.5,20.664 22.5,20.25L22.5,6.75C22.5,6.336 22.164,6 21.75,6L10.5,6C10.265,6 10.041,5.888 9.9,5.7L8.1,3.3C7.959,3.112 7.735,3 7.5,3L2.25,3Z"
			style="fill-rule:nonzero;" />
	</g>
</svg>