<svg xmlns="http://www.w3.org/2000/svg" viewBox="0 0 24 24">
    <defs>
        <style>
            .a {
                fill: none;
                stroke: currentColor;
                stroke-linecap: round;
                stroke-linejoin: round;
                stroke-width: 1.5px;
            }
        </style>
    </defs>
    <title>layers-hide</title>
    <path class="a"
        d="M8.153,13.664a12.271,12.271,0,0,1-5.936-4.15L1.008,7.96a.75.75,0,0,1,0-.92L2.217,5.486A12.268,12.268,0,0,1,11.9.75h0a12.269,12.269,0,0,1,9.684,4.736L22.792,7.04a.748.748,0,0,1,0,.92L21.584,9.514" />
    <path class="a" d="M10.4,10.937A3.749,3.749,0,1,1,15.338,9" />
    <circle class="a" cx="17.15" cy="17.25" r="6" />
    <line class="a" x1="14.15" y1="17.25" x2="20.15" y2="17.25" />
</svg>