<svg width="18" height="18" viewBox="0 0 18 18" fill="none" xmlns="http://www.w3.org/2000/svg">
    <rect opacity="0.01" width="18" height="18" fill="#D8D8D8" />
    <path fill-rule="evenodd" clip-rule="evenodd"
        d="M14.3524 4.42834L2.53033 16.2504C2.23744 16.5433 1.76256 16.5433 1.46967 16.2504C1.17678 15.9575 1.17678 15.4826 1.46967 15.1897L13.2917 3.36768H2.74941C2.3352 3.36768 1.99941 3.03189 1.99941 2.61768C1.99941 2.20346 2.3352 1.86768 2.74941 1.86768H15.1022H15.1024C15.204 1.86768 15.301 1.88792 15.3894 1.92458C15.4759 1.96035 15.557 2.01298 15.6278 2.08247C15.6311 2.08571 15.6343 2.08897 15.6376 2.09226C15.707 2.16302 15.7597 2.24414 15.7954 2.33059C15.8321 2.41902 15.8524 2.51598 15.8524 2.61768V14.9706C15.8524 15.3848 15.5166 15.7206 15.1024 15.7206C14.6881 15.7206 14.3524 15.3848 14.3524 14.9706V4.42834Z"
        fill="black" />
    <mask id="mask0" mask-type="alpha" maskUnits="userSpaceOnUse" x="1" y="1" width="15" height="16">
        <path fill-rule="evenodd" clip-rule="evenodd"
            d="M14.3524 4.42834L2.53033 16.2504C2.23744 16.5433 1.76256 16.5433 1.46967 16.2504C1.17678 15.9575 1.17678 15.4826 1.46967 15.1897L13.2917 3.36768H2.74941C2.3352 3.36768 1.99941 3.03189 1.99941 2.61768C1.99941 2.20346 2.3352 1.86768 2.74941 1.86768H15.1022H15.1024C15.204 1.86768 15.301 1.88792 15.3894 1.92458C15.4759 1.96035 15.557 2.01298 15.6278 2.08247C15.6311 2.08571 15.6343 2.08897 15.6376 2.09226C15.707 2.16302 15.7597 2.24414 15.7954 2.33059C15.8321 2.41902 15.8524 2.51598 15.8524 2.61768V14.9706C15.8524 15.3848 15.5166 15.7206 15.1024 15.7206C14.6881 15.7206 14.3524 15.3848 14.3524 14.9706V4.42834Z"
            fill="white" />
    </mask>
    <g mask="url(#mask0)">
        <rect width="18" height="18" fill="#68BDF4" />
    </g>
</svg>