<?xml version="1.0" encoding="utf-8"?>
<svg xmlns="http://www.w3.org/2000/svg" viewBox="0 0 24 24" fill="currentColor">
	<title>navigation-menu-vertical</title>
	<g>
		<path d="M11.987,24.003c-1.861,0-3.375-1.514-3.375-3.375s1.514-3.375,3.375-3.375s3.375,1.514,3.375,3.375
		S13.848,24.003,11.987,24.003z M11.987,18.753c-1.034,0-1.875,0.841-1.875,1.875s0.841,1.875,1.875,1.875
		c1.034,0,1.875-0.841,1.875-1.875S13.021,18.753,11.987,18.753z" />
		<path d="M11.987,6.753c-1.861,0-3.375-1.514-3.375-3.375s1.514-3.375,3.375-3.375s3.375,1.514,3.375,3.375
		S13.848,6.753,11.987,6.753z M11.987,1.503c-1.034,0-1.875,0.841-1.875,1.875s0.841,1.875,1.875,1.875
		c1.034,0,1.875-0.841,1.875-1.875S13.021,1.503,11.987,1.503z" />
		<path d="M11.987,15.378c-1.861,0-3.375-1.514-3.375-3.375c0-1.861,1.514-3.375,3.375-3.375s3.375,1.514,3.375,3.375
		C15.362,13.864,13.848,15.378,11.987,15.378z M11.987,10.128c-1.034,0-1.875,0.841-1.875,1.875s0.841,1.875,1.875,1.875
		c1.034,0,1.875-0.841,1.875-1.875S13.021,10.128,11.987,10.128z" />
	</g>
</svg>