<?xml version="1.0" encoding="UTF-8" standalone="no"?>
<svg id="svg2" xmlns:rdf="http://www.w3.org/1999/02/22-rdf-syntax-ns#" xmlns="http://www.w3.org/2000/svg" height="24"
    width="24" version="1.1" xmlns:cc="http://creativecommons.org/ns#" xmlns:dc="http://purl.org/dc/elements/1.1/"
    viewBox="0 0 24 24">
    <defs>
        <style>
            .a {
                fill: none;
                stroke: currentColor;
                stroke-linecap: round;
                stroke-linejoin: round;
                stroke-width: 1.5px;
            }
        </style>
    </defs>
    <title id="title4">neo4j-outline-32px</title>
    <path id="path6"
        d="m14.168 20.262c1.5956-0.43742 3.0565-1.299 4.2481-2.5295 1.5691-1.6212 2.5109-3.7173 2.7171-5.9502l-0.77521-0.0716c-0.19069 2.0587-1.057 3.9889-2.5015 5.4809-1.0943 1.1309-2.433 1.9201-3.8939 2.3202l0.20548 0.7503zm3.679-16.835c-2.453-2.1528-5.785-2.847-8.8343-1.9014l0.2304 0.7433c2.7919-0.8655 5.8409-0.2304 8.0899 1.7434l0.514-0.5853zm-13.648 1.5621c-2.819 3.8496-2.4758 9.2955 0.8601 12.742 0.27163 0.28019 0.55728 0.54249 0.85615 0.78454l0.4904-0.605c-0.2748-0.223-0.5371-0.463-0.7869-0.721-3.0713-3.173-3.388-8.1955-0.7916-11.741l-0.6281-0.4597zm13.051 9.9125c0.29732 0.30666 0.29732 0.80478 0 1.1114-0.29732 0.30666-0.7791 0.30666-1.0764 0-0.29732-0.30666-0.29732-0.80478 0-1.1114 0.29732-0.30666 0.7791-0.30666 1.0764 0zm-1.3045 1.6843c0.29732 0.30666 0.29732 0.80478 0 1.1114-0.29732 0.30666-0.7791 0.30666-1.0764 0-0.29732-0.30666-0.29732-0.80478 0-1.1114 0.29732-0.30666 0.7791-0.30666 1.0764 0zm-8.0377-2.85c0.29732 0.30666 0.29732 0.80478 0 1.1114-0.29732 0.30666-0.7791 0.30666-1.0764 0-0.29732-0.30666-0.29732-0.80478 0-1.1114 0.29732-0.30666 0.7791-0.30666 1.0764 0zm-1.0873-1.969c0.29732 0.30666 0.29732 0.80478 0 1.1114-0.29732 0.30666-0.7791 0.30666-1.0764 0-0.29732-0.30666-0.29732-0.80478 0-1.1114 0.29732-0.30666 0.7791-0.30666 1.0764 0zm4.843-9.3981c0.29732 0.30666 0.29732 0.80478 0 1.1114-0.29732 0.30666-0.7791 0.30666-1.0764 0-0.29732-0.30666-0.29732-0.80478 0-1.1114 0.29732-0.30666 0.7791-0.30666 1.0764 0zm1.7512 0.72695c0.29732 0.30666 0.29732 0.80478 0 1.1114-0.29732 0.30666-0.7791 0.30666-1.0764 0-0.29732-0.30666-0.29732-0.80478 0-1.1114 0.29732-0.30666 0.7791-0.30666 1.0764 0zm-7.131 4.1734c0.29732 0.30666 0.29732 0.80478 0 1.1114-0.29732 0.30666-0.7791 0.30666-1.0764 0-0.29732-0.30666-0.29732-0.80478 0-1.1114 0.29732-0.30666 0.7791-0.30666 1.0764 0zm0.10274 2.1894c0.29732 0.30666 0.29732 0.80478 0 1.1114-0.29732 0.30666-0.7791 0.30666-1.0764 0-0.29732-0.30666-0.29732-0.80478 0-1.1114 0.29732-0.30666 0.7791-0.30666 1.0764 0zm6.253 7.1707c1.4329 1.4796 1.4329 3.8846 0 5.3642-1.4259 1.4726-3.732 1.4726-5.1571 0-1.4329-1.4796-1.4329-3.8846 0-5.3642 1.4259-1.4726 3.732-1.4726 5.1571 0l0.55883-0.54093c-1.7318-1.7886-4.5446-1.7886-6.2756 0-1.7248 1.7816-1.7248 4.6652 0 6.4468 1.7318 1.7886 4.5446 1.7886 6.2756 0 1.7248-1.7816 1.7248-4.6652 0-6.4468l-0.55961 0.54093zm-4.1394-14.897c0.95266 0.9838 0.95266 2.584 0 3.5678-0.94566 0.97679-2.4727 0.97679-3.4184 0-0.95266-0.9838-0.95266-2.584 0-3.5678 0.94566-0.97679 2.4727-0.97679 3.4184 0l0.5596-0.5417c-1.2515-1.2928-3.2853-1.2928-4.5368 0-1.2445 1.2858-1.2445 3.3647 0 4.6505 1.2515 1.2928 3.2853 1.2928 4.5368 0 1.2445-1.2858 1.2445-3.3647 0-4.6505l-0.5596 0.5417zm11.541 3.6767c1.7536 1.8119 1.7536 4.754 0 6.5659-1.7466 1.8041-4.5734 1.8041-6.32 0-1.7536-1.8119-1.7536-4.754 0-6.5651 1.7465-1.8041 4.5734-1.8041 6.32 0l0.55961-0.54171c-2.0524-2.1201-5.386-2.1201-7.4384 0-2.0454 2.1131-2.0454 5.5346 0 7.6478 2.0524 2.1201 5.386 2.1201 7.4384 0 2.0454-2.1131 2.0454-5.5346 0-7.6478l-0.56 0.5417z" />
</svg>