<svg xmlns="http://www.w3.org/2000/svg" viewBox="0 0 24 24">
    <defs>
        <style>
            .a {
                fill: none;
                stroke: currentColor;
                stroke-linecap: round;
                stroke-linejoin: round;
            }
        </style>
    </defs>
    <title>task-list-download</title>
    <path class="a"
        d="M21.5,3.5a1,1,0,0,0-1-1H15.052a3.329,3.329,0,0,0-6.1,0H3.5a1,1,0,0,0-1,1v19a1,1,0,0,0,1,1h17a1,1,0,0,0,1-1Z" />
    <path class="a" d="M5.5,20.5h9.08a2,2,0,0,0,1.519-.7l1.92-2.239a2.006,2.006,0,0,0,.481-1.3V5.5H5.5Z" />
    <polyline class="a" points="11.5 10 11.5 16.5 9 14" />
    <line class="a" x1="14" y1="14" x2="11.5" y2="16.5" />
</svg>