<svg width="14" height="14" viewBox="0 0 14 14" fill="none" xmlns="http://www.w3.org/2000/svg">
    <path fill-rule="evenodd" clip-rule="evenodd"
        d="M7.38864 1.23886L9.17387 4.77351L12.6079 5.11391C12.7751 5.13013 12.9179 5.24039 12.9746 5.39704C13.0312 5.55369 12.9915 5.72863 12.8727 5.84626L10.0427 8.64768L11.0919 12.4543C11.1367 12.6181 11.0803 12.7926 10.9478 12.9002C10.8153 13.0078 10.6314 13.0284 10.478 12.9529L7 11.2305L3.52198 12.9547C3.36864 13.0305 3.18461 13.01 3.05217 12.9022C2.91973 12.7945 2.86363 12.6198 2.90895 12.4561L3.95729 8.64768L1.12731 5.84448C1.00847 5.72685 0.968796 5.55191 1.02543 5.39526C1.08207 5.23861 1.22486 5.12835 1.39209 5.11213L4.82613 4.77173L6.61136 1.23708C6.68525 1.09142 6.83594 0.999626 7.00056 1C7.16517 1.00038 7.31543 1.09286 7.38864 1.23886V1.23886Z"
        stroke="currentColor" stroke-linecap="round" stroke-linejoin="round" />
</svg>