<?xml version="1.0" encoding="utf-8"?>
<svg version="1.1" id="Layer_1" xmlns="http://www.w3.org/2000/svg" xmlns:xlink="http://www.w3.org/1999/xlink" x="3"
	y="3" viewBox="0 0 24 24" style="enable-background:new 0 0 24 24;" xml:space="preserve" fill="currentColor">
	<title>folder-add</title>
	<g>
		<path d="M2.447,19.5c-0.079,0-0.156-0.012-0.231-0.037C0.986,19.345,0.017,18.3,0,17.06V2.25C0,1.009,1.009,0,2.25,0h4.5
		C7.99,0,9,1.009,9,2.25V3h9.75C19.99,3,21,4.009,21,5.25V7.5h0.75c0.601,0,1.166,0.234,1.591,0.658C23.766,8.583,24,9.148,24,9.749
		c0,0.195-0.025,0.391-0.076,0.58c-0.088,0.328-0.386,0.557-0.725,0.557c-0.065,0-0.131-0.009-0.194-0.026
		c-0.193-0.052-0.355-0.176-0.455-0.349s-0.127-0.375-0.075-0.569C22.492,9.88,22.5,9.815,22.5,9.751c0-0.202-0.078-0.39-0.22-0.532
		C22.139,9.078,21.95,9,21.75,9H7.879C7.546,9,7.25,9.223,7.157,9.542l-2.351,8.154C4.777,17.8,4.741,17.901,4.698,18H8.25
		C8.663,18,9,18.336,9,18.75S8.663,19.5,8.25,19.5H2.447z M2.25,1.5C1.836,1.5,1.5,1.836,1.5,2.25v14.8
		c0.007,0.509,0.433,0.927,0.95,0.927c0.431-0.006,0.801-0.29,0.914-0.692l2.352-8.158C5.993,8.169,6.881,7.5,7.878,7.5H19.5V5.25
		c0-0.414-0.336-0.75-0.75-0.75H8.25C7.836,4.5,7.5,4.164,7.5,3.75v-1.5c0-0.414-0.336-0.75-0.75-0.75H2.25z" />
		<path d="M17.25,24c-3.722,0-6.75-3.028-6.75-6.75s3.028-6.75,6.75-6.75S24,13.528,24,17.25S20.972,24,17.25,24z M17.25,12
		C14.355,12,12,14.355,12,17.25s2.355,5.25,5.25,5.25s5.25-2.355,5.25-5.25S20.145,12,17.25,12z" />
		<path d="M17.25,21c-0.414,0-0.75-0.336-0.75-0.75V18h-2.25c-0.414,0-0.75-0.336-0.75-0.75s0.336-0.75,0.75-0.75h2.25v-2.25
		c0-0.414,0.336-0.75,0.75-0.75S18,13.836,18,14.25v2.25h2.25c0.414,0,0.75,0.336,0.75,0.75S20.663,18,20.25,18H18v2.25
		C18,20.664,17.663,21,17.25,21z" />
	</g>
</svg>