<svg width="20" height="20" viewBox="0 0 20 20" fill="none" xmlns="http://www.w3.org/2000/svg">
    <path
        d="M9.75 19.2471C14.7206 19.2471 18.75 15.2176 18.75 10.2471C18.75 5.27651 14.7206 1.24707 9.75 1.24707C4.77944 1.24707 0.75 5.27651 0.75 10.2471C0.75 15.2176 4.77944 19.2471 9.75 19.2471Z"
        stroke="currentColor" stroke-width="1.5" stroke-linecap="round" stroke-linejoin="round" />
    <path
        d="M9.75 14.7471C9.67583 14.7471 9.60333 14.7691 9.54166 14.8103C9.47999 14.8515 9.43193 14.91 9.40355 14.9786C9.37516 15.0471 9.36774 15.1225 9.38221 15.1952C9.39668 15.268 9.43239 15.3348 9.48483 15.3872C9.53728 15.4397 9.6041 15.4754 9.67684 15.4899C9.74958 15.5043 9.82498 15.4969 9.89351 15.4685C9.96203 15.4401 10.0206 15.3921 10.0618 15.3304C10.103 15.2687 10.125 15.1962 10.125 15.1221C10.125 15.0226 10.0855 14.9272 10.0152 14.8569C9.94484 14.7866 9.84946 14.7471 9.75 14.7471Z"
        stroke="currentColor" stroke-width="1.5" stroke-linecap="round" stroke-linejoin="round" />
    <path
        d="M6.75 7.24696C6.75029 6.69703 6.90173 6.15776 7.18778 5.68808C7.47382 5.2184 7.88347 4.83638 8.37194 4.58377C8.86042 4.33116 9.40894 4.21768 9.95755 4.25572C10.5062 4.29377 11.0338 4.48188 11.4827 4.7995C11.9316 5.11712 12.2846 5.55203 12.5031 6.0567C12.7216 6.56137 12.7971 7.11638 12.7215 7.66108C12.6459 8.20579 12.422 8.71923 12.0743 9.14529C11.7266 9.57136 11.2685 9.89365 10.75 10.077C10.4576 10.1803 10.2044 10.3718 10.0253 10.6251C9.84623 10.8783 9.75004 11.1808 9.75 11.491V12.122"
        stroke="currentColor" stroke-width="1.5" stroke-linecap="round" stroke-linejoin="round" />
</svg>