<svg width="15" height="15" viewBox="0 0 15 15" fill="transparent" xmlns="http://www.w3.org/2000/svg">
    <rect width="15" height="15" />
    <path opacity="0.716913" fill-rule="evenodd" clip-rule="evenodd"
        d="M7.95341 0.778664L10.0362 4.90243L14.0426 5.29956C14.2377 5.31848 14.4043 5.44712 14.4703 5.62988C14.5364 5.81264 14.4901 6.01674 14.3515 6.15397L11.0498 9.42229L12.2739 13.8634C12.3261 14.0544 12.2603 14.258 12.1058 14.3835C11.9512 14.5091 11.7367 14.5331 11.5577 14.4451L7.5 12.4355L3.44231 14.4471C3.26342 14.5356 3.04872 14.5116 2.8942 14.3859C2.73969 14.2603 2.67423 14.0564 2.72711 13.8654L3.95018 9.42229L0.648526 6.1519C0.509883 6.01466 0.463596 5.81056 0.529672 5.6278C0.595747 5.44505 0.762333 5.31641 0.957434 5.29749L4.96381 4.90036L7.04659 0.77659C7.13279 0.606652 7.3086 0.499562 7.50065 0.500001C7.6927 0.500441 7.868 0.608333 7.95341 0.778664V0.778664Z"
        stroke="currentColor" stroke-linecap="round" stroke-linejoin="round" />
</svg>