<svg width="100%" height="100%" viewBox="0 0 56 56" version="1.1" xmlns="http://www.w3.org/2000/svg"
	xmlns:xlink="http://www.w3.org/1999/xlink" xml:space="preserve" xmlns:serif="http://www.serif.com/"
	style="fill-rule:evenodd;clip-rule:evenodd;stroke-linejoin:round;stroke-miterlimit:2;">
	<g id="Artboard1" transform="matrix(0.961674,0,0,0.961759,-0.863261,-37.9164)">
		<rect x="0.898" y="39.424" width="57.203" height="57.203" style="fill:none;" />
		<g transform="matrix(1.03985,0,0,1.03976,-12.2988,19.2332)">
			<path
				d="M49.21,23.19C38.63,23.19 31.53,29.35 31.53,41.3L31.53,49.82C32.57,49.32 33.73,49.04 34.95,49.04C36.19,49.04 37.36,49.33 38.41,49.84L38.41,41.3C38.41,33.55 42.68,29.56 49.2,29.56C55.72,29.56 60,33.54 60,41.3L60,59.92L66.88,59.92L66.88,41.3C66.89,29.27 59.79,23.19 49.21,23.19Z"
				style="fill-rule:nonzero;" />
			<path
				d="M34.68,51.19C33.35,51.19 32.13,51.64 31.14,52.38L24.66,47.95C24.8,47.44 24.88,46.91 24.88,46.36C24.88,43.11 22.24,40.47 18.99,40.47C15.74,40.47 13.1,43.11 13.1,46.36C13.1,49.61 15.74,52.25 18.99,52.25C20.32,52.25 21.54,51.8 22.53,51.06L29.01,55.49C28.87,56 28.79,56.53 28.79,57.08C28.79,57.63 28.87,58.17 29.01,58.67L22.53,63.1C21.54,62.35 20.32,61.91 18.99,61.91C15.74,61.91 13.1,64.55 13.1,67.8C13.1,71.05 15.74,73.69 18.99,73.69C22.24,73.69 24.88,71.05 24.88,67.8C24.88,67.25 24.8,66.71 24.66,66.21L31.14,61.78C32.13,62.53 33.35,62.97 34.68,62.97C37.93,62.97 40.57,60.33 40.57,57.08C40.57,53.83 37.93,51.19 34.68,51.19Z"
				style="fill-rule:nonzero;" />
		</g>
	</g>
</svg>