<svg xmlns="http://www.w3.org/2000/svg" viewBox="0 0 21.23 21">
    <title>Asset 2</title>
    <path d="M20.73,1H.73A.5.5,0,0,1,.23.5.5.5,0,0,1,.73,0h20a.5.5,0,0,1,0,1Z"/>
    <path d="M15.65,7.67H.65a.51.51,0,0,1-.5-.5.5.5,0,0,1,.5-.5h15a.5.5,0,0,1,.5.5A.5.5,0,0,1,15.65,7.67Z"/>
    <path d="M10.58,14.33H.58a.5.5,0,0,1-.5-.5.5.5,0,0,1,.5-.5h10a.51.51,0,0,1,.5.5A.5.5,0,0,1,10.58,14.33Z"/>
    <path d="M5.5,21H.5a.5.5,0,0,1,0-1h5a.5.5,0,0,1,0,1Z"/>
    <path d="M18,21a.5.5,0,0,1-.5-.5V11.71l-1.87,1.87a.5.5,0,0,1-.71,0,.49.49,0,0,1-.15-.35.51.51,0,0,1,.15-.36l2.73-2.72h0a.48.48,0,0,1,.22-.12h.06a.39.39,0,0,1,.26,0,.45.45,0,0,1,.17.11l2.72,2.72a.5.5,0,1,1-.71.71L18.5,11.71V20.5A.5.5,0,0,1,18,21Z"/>
</svg>
