<svg xmlns="http://www.w3.org/2000/svg" viewBox="0 0 21 21">
    <title>Asset 4</title>
    <path d="M16.64,21a.5.5,0,0,1-.5-.5V1.71L12.85,5a.48.48,0,0,1-.7,0,.5.5,0,0,1,0-.71L16.28.15l0,0h0A.55.55,0,0,1,16.58,0h.09A.53.53,0,0,1,17,.15L20.85,4a.5.5,0,0,1,.15.35.51.51,0,0,1-.15.36.5.5,0,0,1-.7,0l-3-3V20.5A.5.5,0,0,1,16.64,21Z"/>
    <path d="M4.36,21h0A.53.53,0,0,1,4,20.85L.15,17A.49.49,0,0,1,0,16.64a.51.51,0,0,1,.15-.36.5.5,0,0,1,.7,0l3,3V.5a.5.5,0,0,1,.5-.5.5.5,0,0,1,.5.5V19.29L8.15,16a.48.48,0,0,1,.7,0,.5.5,0,0,1,0,.71L4.72,20.85l0,0h0a.47.47,0,0,1-.27.12H4.36Z"/>
</svg>
