<svg xmlns="http://www.w3.org/2000/svg" viewBox="0 0 21.23 21">
    <title>Asset 3</title>
    <path d="M20.73,21H.73a.5.5,0,0,1,0-1h20a.5.5,0,1,1,0,1Z"/>
    <path d="M15.65,14.33H.65a.5.5,0,0,1-.5-.5.51.51,0,0,1,.5-.5h15a.5.5,0,0,1,.5.5A.5.5,0,0,1,15.65,14.33Z"/>
    <path d="M10.58,7.67H.58a.5.5,0,0,1-.5-.5.5.5,0,0,1,.5-.5h10a.5.5,0,0,1,.5.5A.51.51,0,0,1,10.58,7.67Z"/>
    <path d="M5.5,1H.5A.5.5,0,0,1,0,.5.5.5,0,0,1,.5,0h5A.5.5,0,0,1,6,.5.5.5,0,0,1,5.5,1Z"/>
    <path d="M18,11h-.1a.5.5,0,0,1-.25-.13h0L14.92,8.13a.51.51,0,0,1-.15-.36.49.49,0,0,1,.15-.35.5.5,0,0,1,.71,0L17.5,9.29V.5a.5.5,0,0,1,1,0V9.29l1.87-1.87a.5.5,0,1,1,.71.71l-2.72,2.72a.45.45,0,0,1-.17.11A.43.43,0,0,1,18,11Z"/>
</svg>
