<svg xmlns="http://www.w3.org/2000/svg" viewBox="0 0 24 24">
    <defs>
        <style>
            .a {
                fill: none;
                stroke: currentColor;
                stroke-linecap: round;
                stroke-linejoin: round;
                stroke-width: 1.5px;
            }
        </style>
    </defs>
    <title>database-check</title>
    <path class="a"
        d="M12,9.751C5.787,9.751.75,7.736.75,5.251S5.787.751,12,.751s11.25,2.014,11.25,4.5c0,1.174-1.125,2.243-2.967,3.045" />
    <line class="a" x1="23.25" y1="10.452" x2="23.25" y2="5.251" />
    <path class="a" d="M.75,5.251v6c0,1.958,3.128,3.624,7.494,4.243" />
    <path class="a" d="M.75,11.251v6c0,2.067,3.486,3.809,8.235,4.336" />
    <circle class="a" cx="17.25" cy="17.251" r="6" />
    <path class="a" d="M19.924,15.506,17.019,19.38a.751.751,0,0,1-1.131.08l-1.5-1.5" />
</svg>