<svg xmlns="http://www.w3.org/2000/svg" version="1.1" id="Layer_1" x="0" y="0" viewBox="0 0 612 110.5" xml:space="preserve"><style>.st1{fill:#ececec}</style><path fill="#ccc" d="M425.4 101.9l-99.8-19.5-56.5 10.3L16.7 75.5v-1.2l187.7-12v1.2L26.2 74.9l242.7 16.6 28.9-41.8 1 .8-28.2 40.7 55-10h.1l98.9 19.3 19.1-40.1-47.6 19.5-.4-1.2 46.5-19-73.9-12.6.2-1.2 76 12.9.1-.3 1 .5 1.2.1-.4.2L512 91.4l82.4-16.2.2 1.2-82.8 16.4-.2-.1-66.4-32.6z"/><circle class="st1" cx="444.6" cy="59.5" r="16.3"/><circle class="st1" cx="511.9" cy="92.3" r="16.3"/><circle class="st1" cx="16.7" cy="74.8" r="16.3"/><circle class="st1" cx="204.4" cy="63.1" r="16.3"/><circle class="st1" cx="269.1" cy="92.3" r="16.3"/><circle class="st1" cx="594.5" cy="75.8" r="16.3"/><circle class="st1" cx="298.3" cy="50.1" r="9.1"/><circle class="st1" cx="325.3" cy="82" r="9.1"/><circle class="st1" cx="368.4" cy="46.5" r="9.1"/><circle class="st1" cx="396" cy="79.3" r="9.1"/><circle class="st1" cx="424.9" cy="101.4" r="9.1"/></svg>