<svg id="Layer_1" data-name="Layer 1" xmlns="http://www.w3.org/2000/svg" width="751" height="272" viewBox="0 0 751 272"><defs><style>.cls-3{fill:#fff}</style></defs><g opacity=".3"><path d="M173 1c4 6 29 41 31 90m-4 1c-5-6-30-40-35-89m41 88c2-7 15-43 52-70m-49 77c7 1 65 12 106 54m-108-51c4 1 47 60 52 116m-54-115c0 3 7 69 48 118m-45-120c5 6 46 46 104 58M209 93c6-4 37-25 55-68m-61 77s-1 69-48 131m46-132s-46 52-52 130m49-135s-48-9-101 16m102-13s-42 25-100 20m-83 0l54-1m-55 5l121 112M14 124l151 209m233-129L186 337m212-146l-59-24m21-69l44 86m-34-94l77 45m-74-55l95 5m-96-13l121-35M367 63l64-57m-74 51l19-61m118 98l48 37m-69 10l66-1m-71 13l75 90m121-64l-96 5m98 1l-102 61m153-24l-151 29m194 23l-194-19m119 60l-120-56m30 83l-37-76m-14-1s-35 53-107 81m102-87s-59 21-103 83m256-162l137 22M683 88l-4 76m12-78l13 35m0-45l32 19m-30-25l157 38M706 64l162-7m-162 3l139-36M703 54l75-45m-83 37l36-59m-66 65l-23-18m25 46l-13 11" fill="none" stroke="#fff" stroke-width=".75"/><circle class="cls-3" cx="684" cy="65" r="23"/><circle class="cls-3" cx="204" cy="97" r="6"/><circle class="cls-3" cx="350" cy="78" r="23"/><circle class="cls-3" cx="552" cy="254" r="14"/><circle class="cls-3" cx="147" cy="245" r="14"/><circle class="cls-3" cx="10" cy="119" r="6"/><circle class="cls-3" cx="85" cy="118" r="14"/><circle class="cls-3" cx="269" cy="12" r="14"/><circle class="cls-3" cx="262" cy="231" r="14"/><circle class="cls-3" cx="165" cy="-11" r="14"/><circle class="cls-3" cx="326" cy="162" r="14"/><circle class="cls-3" cx="482" cy="86" r="14"/><circle class="cls-3" cx="442" cy="-3" r="14"/><circle class="cls-3" cx="411" cy="197" r="14"/><circle class="cls-3" cx="459" cy="142" r="14"/><circle class="cls-3" cx="507" cy="34" r="14"/><circle class="cls-3" cx="553" cy="139" r="14"/><circle class="cls-3" cx="678" cy="178" r="14"/><circle class="cls-3" cx="731" cy="219" r="14"/><circle class="cls-3" cx="554" cy="185" r="14"/><circle class="cls-3" cx="748" cy="102" r="14"/><circle class="cls-3" cx="630" cy="26" r="14"/><circle class="cls-3" cx="643" cy="100" r="14"/><circle class="cls-3" cx="709" cy="135" r="14"/><circle class="cls-3" cx="178" cy="280" r="14"/></g></svg>