<svg id="Layer_1" xmlns="http://www.w3.org/2000/svg" viewBox="0 0 108.9 37.9"><style>.st0{fill:#fff}.st1{fill:none}</style><path class="st0" d="M16.4 33.6C7.4 33.6 0 26.2 0 17.2 0 8.2 7.4.8 16.4.8c9 0 16.4 7.4 16.4 16.4 0 9-7.4 16.4-16.4 16.4zm0-32C7.8 1.6.8 8.6.8 17.2s7 15.6 15.6 15.6S32 25.8 32 17.2 25 1.6 16.4 1.6z"/><path class="st1" d="M0 0h108.9v37.9H0z"/><path class="st0" d="M7.5 11.9c0 .7-.6 1.3-1.3 1.3-.7 0-1.3-.6-1.3-1.3 0-.7.6-1.3 1.3-1.3.7 0 1.3.6 1.3 1.3m.2 3.5c0 .7-.6 1.3-1.3 1.3-.7 0-1.3-.6-1.3-1.3 0-.7.6-1.3 1.3-1.3.7.1 1.3.6 1.3 1.3m.8 3.8c0 .7-.6 1.3-1.3 1.3-.7 0-1.3-.6-1.3-1.3 0-.7.6-1.3 1.3-1.3.7 0 1.3.5 1.3 1.3m1.7 3.3c0 .7-.6 1.3-1.3 1.3-.7 0-1.3-.6-1.3-1.3 0-.7.6-1.3 1.3-1.3.8 0 1.3.6 1.3 1.3m13.7 4.7c0 .7-.6 1.3-1.3 1.3-.7 0-1.3-.6-1.3-1.3 0-.7.6-1.3 1.3-1.3.8 0 1.3.5 1.3 1.3m2.4-2.8c0 .7-.6 1.3-1.3 1.3-.7 0-1.3-.6-1.3-1.3 0-.7.6-1.3 1.3-1.3.7 0 1.3.6 1.3 1.3M19.5 4.9c0 .7-.6 1.3-1.3 1.3-.7 0-1.3-.6-1.3-1.3 0-.7.6-1.3 1.3-1.3.7.1 1.3.6 1.3 1.3m-3.3-1.1c0 .7-.6 1.3-1.3 1.3-.7 0-1.3-.6-1.3-1.3 0-.7.6-1.3 1.3-1.3.7 0 1.3.6 1.3 1.3m17.6 9.6c0 4.7-3.8 8.5-8.5 8.5s-8.5-3.8-8.5-8.5 3.8-8.5 8.5-8.5c4.6-.1 8.5 3.8 8.5 8.5"/><path class="st0" d="M25.2 22c-4.8 0-8.7-3.9-8.7-8.7s3.9-8.7 8.7-8.7 8.7 3.9 8.7 8.7S30 22 25.2 22zm0-17c-4.6 0-8.4 3.8-8.4 8.4s3.8 8.4 8.4 8.4 8.4-3.8 8.4-8.4S29.9 5 25.2 5zm-4.7 25.7c0 3.9-3.1 7-7 7s-7-3.1-7-7 3.1-7 7-7c3.9.1 7 3.2 7 7"/><path class="st0" d="M13.5 37.9c-3.9 0-7.1-3.2-7.1-7.1s3.2-7.1 7.1-7.1c3.9 0 7.1 3.2 7.1 7.1s-3.1 7.1-7.1 7.1zm0-14c-3.8 0-6.8 3.1-6.8 6.8s3.1 6.8 6.8 6.8c3.8 0 6.8-3.1 6.8-6.8s-3-6.8-6.8-6.8z"/><path class="st1" d="M0 0h108.9v37.9H0z"/><path class="st0" d="M12.5 4.8c0 2.6-2.1 4.7-4.7 4.7S3.1 7.4 3.1 4.8 5.2.1 7.8.1s4.7 2.1 4.7 4.7"/><path class="st0" d="M7.8 9.6C5.2 9.6 3 7.4 3 4.8S5.2 0 7.8 0c2.6 0 4.8 2.1 4.8 4.8s-2.2 4.8-4.8 4.8zm0-9.3c-2.5 0-4.5 2-4.5 4.5s2 4.5 4.5 4.5 4.5-2 4.5-4.5S10.3.3 7.8.3z"/><path class="st1" d="M0 0h108.9v37.9H0z"/><path class="st0" d="M37.7 7.8h1.6v3c.7-1.8 2.2-3.3 5.4-3.3 3.6 0 6 2.4 6 6.2v9.6h-1.6V14c0-3.1-1.9-5.1-4.8-5.1-3.1 0-5.1 2.4-5.1 6v8.4h-1.6V7.8m15.9 7.8c0-4.9 3.3-8.2 7.6-8.2 4.2 0 7.3 3.5 7.3 7.8v.8H55c.1 3.8 2.6 6.4 6.2 6.4 2.9 0 4.9-1.2 5.9-2.4v1.8c-1.5 1.3-3.2 2-5.9 2-4.5.1-7.7-3.2-7.7-8.2m13.2-1c0-3.2-2.5-5.7-5.6-5.7-3.3 0-5.9 2.5-6 5.7h11.6zM79 7.4c4.6 0 8.2 3.5 8.2 8.2s-3.6 8.2-8.2 8.2-8.2-3.5-8.2-8.2 3.6-8.2 8.2-8.2m0 15c3.8 0 6.7-2.9 6.7-6.8 0-3.8-2.9-6.8-6.7-6.8-3.8 0-6.7 2.9-6.7 6.8s2.9 6.8 6.7 6.8zM95.4 7.8h1.7l-6.6 14.1h9.6v-5.1h1.7v12.6h-1.7v-6H88l7.4-15.6m11.7 0h1.6v17.8c0 3.5-2 4.2-4 4.2-.4 0-.8 0-1-.1v-1.5c.4.1.8.1 1.2.1 1.6 0 2.3-.8 2.3-2.8V7.8m-.5-4.2c0-.7.5-1.1 1.1-1.1.6 0 1.1.5 1.1 1.1 0 .6-.5 1.1-1.1 1.1-.6 0-1.1-.5-1.1-1.1z"/></svg>